<?xml version="1.0" encoding="UTF-8"?> <svg xmlns="http://www.w3.org/2000/svg" width="47" height="47" viewBox="0 0 47 47" fill="none"> <path fill-rule="evenodd" clip-rule="evenodd" d="M23.5 47C36.4787 47 47 36.4787 47 23.5C47 10.5213 36.4787 0 23.5 0C10.5213 0 0 10.5213 0 23.5C0 36.4787 10.5213 47 23.5 47ZM32.3748 39.6463H34.6185C34.6185 37.486 33.4106 35.4881 31.2193 34.0219C30.3859 33.4696 29.4856 33.0251 28.5399 32.6992C31.4848 31.5221 33.8257 29.3433 35.0373 26.6458C37.2399 26.5581 39.0068 24.6292 39.0068 22.2675C39.0068 19.8536 37.1632 17.8874 34.8934 17.8874H34.8691C33.0834 14.2814 29.2467 11.6754 24.7069 11.2855V9.87146C25.2544 9.59676 25.6913 9.14361 25.9451 8.58717C26.199 8.03072 26.2546 7.40442 26.1027 6.81212C25.9508 6.21982 25.6005 5.69713 25.11 5.33071C24.6195 4.9643 24.0181 4.77618 23.4057 4.79757C22.7933 4.81895 22.2066 5.04855 21.743 5.44829C21.2793 5.84802 20.9665 6.39387 20.8565 6.99532C20.7465 7.59676 20.8459 8.21765 21.1381 8.75503C21.4303 9.2924 21.8979 9.71397 22.4632 9.94981V11.2762C17.8449 11.6287 13.9409 14.2702 12.1609 17.9284C9.86297 17.8986 7.99321 19.8816 7.99321 22.3067C7.99321 24.6964 9.79566 26.6458 12.0394 26.6868C13.2659 29.3787 15.6218 31.5501 18.5742 32.7142C17.6504 33.0388 16.771 33.4775 15.9565 34.02C13.7633 35.4881 12.5554 37.486 12.5554 39.6463H14.7991C14.7991 36.6522 18.8247 34.1226 23.587 34.1226C28.3492 34.1226 32.3748 36.6522 32.3748 39.6463ZM23.5196 31.4233C18.2806 31.4233 13.9521 27.9068 13.4005 23.4167L15.016 23.4148C15.5115 25.8492 17.4598 27.6718 19.782 27.6718C22.1042 27.6718 24.0525 25.8492 24.548 23.4148H29.845C29.734 23.9917 29.4765 24.5306 29.0971 24.9799L30.7949 26.4369C31.516 25.5806 31.9709 24.5328 32.1037 23.4223H33.6388C33.089 27.9143 28.7587 31.4233 23.5196 31.4233ZM19.7764 25.4351C18.6695 25.4351 17.7197 24.5994 17.327 23.4167H22.2258C21.8331 24.5994 20.8833 25.4351 19.7764 25.4351ZM10.5171 21.1909C10.7072 20.8567 10.9787 20.5758 11.3064 20.3741C11.0425 21.6435 11.0235 22.9516 11.2503 24.2281C10.9286 24.017 10.6654 23.7283 10.4851 23.3888C10.3048 23.0493 10.2132 22.6699 10.2188 22.2858C10.2244 21.9016 10.327 21.525 10.5171 21.1909ZM35.7946 24.1386C36.0071 22.8826 35.9811 21.598 35.7179 20.3517L35.7235 20.3498C36.0495 20.5521 36.3166 20.8362 36.498 21.1737C36.6795 21.5112 36.7689 21.8903 36.7575 22.2731C36.7646 22.6393 36.6803 23.0016 36.5123 23.3272C36.3442 23.6529 36.0975 23.9317 35.7946 24.1386ZM33.592 21.1781H31.9635L31.9691 21.1762C31.3932 18.8724 29.4972 17.1785 27.2592 17.1785C25.0211 17.1785 23.1289 18.8724 22.553 21.1762H17.2747C17.4014 20.6962 17.6332 20.2503 17.9534 19.8704L16.2444 18.4209C15.5812 19.2084 15.1443 20.1607 14.9805 21.1762H13.4435C14.1391 16.8278 18.3909 13.4756 23.514 13.4756C28.6372 13.4756 32.889 16.8297 33.592 21.1781ZM27.2573 19.4189C28.28 19.4189 29.17 20.1334 29.6094 21.1781H24.9051L24.9107 21.1762C25.3576 20.1316 26.2345 19.4189 27.2573 19.4189ZM23.2473 7.11045C23.3202 7.06187 23.4058 7.03594 23.4935 7.03594L23.4991 7.03408C23.616 7.03555 23.7275 7.08304 23.8095 7.1662C23.8914 7.24935 23.9371 7.36144 23.9366 7.47806C23.9366 7.5655 23.9106 7.65098 23.8619 7.72369C23.8132 7.79639 23.744 7.85306 23.6631 7.88652C23.5821 7.91999 23.493 7.92874 23.407 7.91168C23.3211 7.89462 23.2421 7.85252 23.1801 7.79068C23.1182 7.72885 23.076 7.65008 23.0589 7.56431C23.0418 7.47855 23.0505 7.38966 23.0841 7.30887C23.1176 7.22808 23.1744 7.15904 23.2473 7.11045Z" fill="white"></path> </svg> 